<?xml version="1.0" encoding="UTF-8" standalone="no"?>
<svg
   xmlns:dc="http://purl.org/dc/elements/1.1/"
   xmlns:cc="http://creativecommons.org/ns#"
   xmlns:rdf="http://www.w3.org/1999/02/22-rdf-syntax-ns#"
   xmlns:svg="http://www.w3.org/2000/svg"
   xmlns="http://www.w3.org/2000/svg"
   xmlns:sodipodi="http://sodipodi.sourceforge.net/DTD/sodipodi-0.dtd"
   xmlns:inkscape="http://www.inkscape.org/namespaces/inkscape"
   height="24"
   viewBox="0 0 24 24"
   width="24"
   version="1.1"
   id="svg3767"
   sodipodi:docname="d6s5.svg"
   inkscape:version="0.92.3 (2405546, 2018-03-11)">
  <metadata
     id="metadata3773">
    <rdf:RDF>
      <cc:Work
         rdf:about="">
        <dc:format>image/svg+xml</dc:format>
        <dc:type
           rdf:resource="http://purl.org/dc/dcmitype/StillImage" />
        <dc:title></dc:title>
      </cc:Work>
    </rdf:RDF>
  </metadata>
  <defs
     id="defs3771" />
  <sodipodi:namedview
     pagecolor="#ffffff"
     bordercolor="#666666"
     borderopacity="1"
     objecttolerance="10"
     gridtolerance="10"
     guidetolerance="10"
     inkscape:pageopacity="0"
     inkscape:pageshadow="2"
     inkscape:window-width="3240"
     inkscape:window-height="2031"
     id="namedview3769"
     showgrid="false"
     inkscape:zoom="72.666667"
     inkscape:cx="10.018349"
     inkscape:cy="10.899083"
     inkscape:window-x="0"
     inkscape:window-y="0"
     inkscape:window-maximized="1"
     inkscape:current-layer="svg3767" />
  <path
     d="M0 0h24v24H0zm21.02 19c0 1.1-.9 2-2 2h-14c-1.1 0-2-.9-2-2V5c0-1.1.9-2 2-2h14c1.1 0 2 .9 2 2v14z"
     fill="none"
     id="path3763" />
  <path
     d="M 19,3 H 5 C 3.9,3 3,3.9 3,5 v 14 c 0,1.1 0.9,2 2,2 h 14 c 1.1,0 2,-0.9 2,-2 V 5 C 21,3.9 20.1,3 19,3 Z M 7.5,18 C 6.67,18 6,17.33 6,16.5 6,15.67 6.67,15 7.5,15 8.33,15 9,15.67 9,16.5 9,17.33 8.33,18 7.5,18 Z m 0,-9 C 6.67,9 6,8.33 6,7.5 6,6.67 6.67,6 7.5,6 8.33,6 9,6.67 9,7.5 9,8.33 8.33,9 7.5,9 Z m 4.5,4.5 c -0.83,0 -1.5,-0.67 -1.5,-1.5 0,-0.83 0.67,-1.5 1.5,-1.5 0.83,0 1.5,0.67 1.5,1.5 0,0.83 -0.67,1.5 -1.5,1.5 z M 16.5,18 C 15.67,18 15,17.33 15,16.5 15,15.67 15.67,15 16.5,15 c 0.83,0 1.5,0.67 1.5,1.5 0,0.83 -0.67,1.5 -1.5,1.5 z m 0,-9 C 15.67,9 15,8.33 15,7.5 15,6.67 15.67,6 16.5,6 17.33,6 18,6.67 18,7.5 18,8.33 17.33,9 16.5,9 Z"
     id="path3765"
     inkscape:connector-curvature="0"
     style="fill:#000000;fill-opacity:1" />
</svg>
