<?xml version="1.0" encoding="UTF-8" standalone="no"?>
<svg
   xmlns:dc="http://purl.org/dc/elements/1.1/"
   xmlns:cc="http://creativecommons.org/ns#"
   xmlns:rdf="http://www.w3.org/1999/02/22-rdf-syntax-ns#"
   xmlns:svg="http://www.w3.org/2000/svg"
   xmlns="http://www.w3.org/2000/svg"
   xmlns:sodipodi="http://sodipodi.sourceforge.net/DTD/sodipodi-0.dtd"
   xmlns:inkscape="http://www.inkscape.org/namespaces/inkscape"
   version="1.1"
   width="24"
   height="24"
   viewBox="0 0 24 24"
   id="svg871"
   sodipodi:docname="d6t2black.svg"
   inkscape:version="0.92.3 (2405546, 2018-03-11)">
  <metadata
     id="metadata877">
    <rdf:RDF>
      <cc:Work
         rdf:about="">
        <dc:format>image/svg+xml</dc:format>
        <dc:type
           rdf:resource="http://purl.org/dc/dcmitype/StillImage" />
        <dc:title></dc:title>
      </cc:Work>
    </rdf:RDF>
  </metadata>
  <defs
     id="defs875" />
  <sodipodi:namedview
     pagecolor="#ffffff"
     bordercolor="#666666"
     borderopacity="1"
     objecttolerance="10"
     gridtolerance="10"
     guidetolerance="10"
     inkscape:pageopacity="0"
     inkscape:pageshadow="2"
     inkscape:window-width="3240"
     inkscape:window-height="2031"
     id="namedview873"
     showgrid="false"
     inkscape:zoom="64"
     inkscape:cx="15.401044"
     inkscape:cy="16.323978"
     inkscape:window-x="0"
     inkscape:window-y="0"
     inkscape:window-maximized="1"
     inkscape:current-layer="svg871"
     showguides="true"
     inkscape:guide-bbox="true"
     inkscape:pagecheckerboard="true">
    <sodipodi:guide
       position="12,22.058594"
       orientation="1,0"
       id="guide1480"
       inkscape:locked="false" />
    <sodipodi:guide
       position="1.8632813,11.992188"
       orientation="0,1"
       id="guide1482"
       inkscape:locked="false" />
  </sodipodi:namedview>
  <path
     d="m 5,3 h 14 c 1.104569,0 2,0.8954305 2,2 v 14 c 0,1.104569 -0.895431,2 -2,2 H 5 C 3.8954305,21 3,20.104569 3,19 V 5 C 3,3.8954305 3.8954305,3 5,3 m 12,2 c -1.104569,0 -2,0.8954305 -2,2 0,1.1045695 0.895431,2 2,2 1.104569,0 2,-0.8954305 2,-2 C 19,5.8954305 18.104569,5 17,5 M 7,15 c -1.1045695,0 -2,0.895431 -2,2 0,1.104569 0.8954305,2 2,2 1.1045695,0 2,-0.895431 2,-2 0,-1.104569 -0.8954305,-2 -2,-2 z"
     id="path869"
     style="opacity:0.5;fill:#000000;fill-opacity:1"
     inkscape:connector-curvature="0"
     sodipodi:nodetypes="csssssssccssscsssss" />
</svg>
