<?xml version="1.0" encoding="UTF-8" standalone="no"?>
<svg
   xmlns:dc="http://purl.org/dc/elements/1.1/"
   xmlns:cc="http://creativecommons.org/ns#"
   xmlns:rdf="http://www.w3.org/1999/02/22-rdf-syntax-ns#"
   xmlns:svg="http://www.w3.org/2000/svg"
   xmlns="http://www.w3.org/2000/svg"
   xmlns:sodipodi="http://sodipodi.sourceforge.net/DTD/sodipodi-0.dtd"
   xmlns:inkscape="http://www.inkscape.org/namespaces/inkscape"
   version="1.1"
   width="24"
   height="24"
   viewBox="0 0 24 24"
   id="svg871"
   sodipodi:docname="d6t6white.svg"
   inkscape:version="0.92.3 (2405546, 2018-03-11)">
  <metadata
     id="metadata877">
    <rdf:RDF>
      <cc:Work
         rdf:about="">
        <dc:format>image/svg+xml</dc:format>
        <dc:type
           rdf:resource="http://purl.org/dc/dcmitype/StillImage" />
        <dc:title></dc:title>
      </cc:Work>
    </rdf:RDF>
  </metadata>
  <defs
     id="defs875" />
  <sodipodi:namedview
     pagecolor="#ffffff"
     bordercolor="#666666"
     borderopacity="1"
     objecttolerance="10"
     gridtolerance="10"
     guidetolerance="10"
     inkscape:pageopacity="0"
     inkscape:pageshadow="2"
     inkscape:window-width="3240"
     inkscape:window-height="2031"
     id="namedview873"
     showgrid="false"
     inkscape:zoom="72.666667"
     inkscape:cx="8.9174312"
     inkscape:cy="12"
     inkscape:window-x="0"
     inkscape:window-y="0"
     inkscape:window-maximized="1"
     inkscape:current-layer="svg871" />
  <path
     d="M5,3H19A2,2 0 0,1 21,5V19A2,2 0 0,1 19,21H5A2,2 0 0,1 3,19V5A2,2 0 0,1 5,3M7,5A2,2 0 0,0 5,7A2,2 0 0,0 7,9A2,2 0 0,0 9,7A2,2 0 0,0 7,5M17,15A2,2 0 0,0 15,17A2,2 0 0,0 17,19A2,2 0 0,0 19,17A2,2 0 0,0 17,15M17,10A2,2 0 0,0 15,12A2,2 0 0,0 17,14A2,2 0 0,0 19,12A2,2 0 0,0 17,10M17,5A2,2 0 0,0 15,7A2,2 0 0,0 17,9A2,2 0 0,0 19,7A2,2 0 0,0 17,5M7,10A2,2 0 0,0 5,12A2,2 0 0,0 7,14A2,2 0 0,0 9,12A2,2 0 0,0 7,10M7,15A2,2 0 0,0 5,17A2,2 0 0,0 7,19A2,2 0 0,0 9,17A2,2 0 0,0 7,15Z"
     id="path869"
     style="opacity:1;fill:#ffffff;fill-opacity:1" />
</svg>
